<svg xmlns="http://www.w3.org/2000/svg" width="24" height="16" viewBox="0 0 36 24" role="img" aria-label="Australian flag">
  <rect width="36" height="24" rx="2" fill="#00008B"/>

  <g clip-path="url(#canton)">
    <rect width="18" height="12" fill="#012169"/>
    <path d="M0 0l18 12M18 0L0 12" stroke="#fff" stroke-width="2.8"/>
    <path d="M0 0l18 12M18 0L0 12" stroke="#E4002B" stroke-width="1.25"/>
    <path d="M9 0v12M0 6h18" stroke="#fff" stroke-width="4"/>
    <path d="M9 0v12M0 6h18" stroke="#E4002B" stroke-width="2.25"/>
  </g>

  <g fill="#fff">
    <path d="M9 15l.55 1.75h1.85l-1.5 1.05.6 1.75L9 18.45l-1.5 1.1.6-1.75-1.5-1.05h1.85z"/>
    <path d="M27.5 3l.45 1.35h1.45l-1.15.85.45 1.35-1.2-.85-1.2.85.45-1.35-1.15-.85h1.45z"/>
    <path d="M23.5 9.2l.42 1.3h1.38l-1.1.8.43 1.3-1.13-.8-1.13.8.43-1.3-1.1-.8h1.38z"/>
    <path d="M30.8 8.1l.42 1.3h1.38l-1.1.8.43 1.3-1.13-.8-1.13.8.43-1.3-1.1-.8h1.38z"/>
    <path d="M27.5 15.5l.42 1.3h1.38l-1.1.8.43 1.3-1.13-.8-1.13.8.43-1.3-1.1-.8h1.38z"/>
    <path d="M32.3 13l.24.72h.76l-.62.45.24.73-.62-.45-.62.45.24-.73-.62-.45h.76z"/>
  </g>

  <defs>
    <clipPath id="canton">
      <rect width="18" height="12"/>
    </clipPath>
  </defs>
</svg>
